<?xml version="1.0" encoding="UTF-8"?>
<!-- Created with Inkscape (http://www.inkscape.org/) -->
<svg width="960" height="960" version="1.1" viewBox="0 0 254 254" xmlns="http://www.w3.org/2000/svg">
 <circle cx="127" cy="127" r="119.06" fill="#88c9f9"/>
 <path d="m127 39.09c-4.8839 0-4.8839 4.8839-4.8839 4.8839v22.398l-16.673-16.679s-3.4531-3.4529-6.906 0c-3.4529 3.4578 0 6.9107 0 6.9107l23.579 23.585v27.063l4.8762 2.8158 4.8917-2.8252v-27.054l23.58-23.585s3.4529-3.4529 0-6.9107c-3.4529-3.4529-6.906 0-6.906 0l-16.674 16.679v-22.398s-3e-5 -4.8839-4.8839-4.8839zm51.105 24.376c-3.4028 0.05554-4.3713 3.6675-4.3713 3.6675l-8.6294 32.209-81.093 46.832-32.204-8.6346s-4.7182-1.2648-5.9831 3.453c-1.2698 4.7227 3.453 5.9826 3.453 5.9826l22.774 6.1004-19.394 11.199s-4.2243 2.4466-1.7823 6.6761c2.442 4.2246 6.6663 1.7828 6.6663 1.7828l19.399-11.199-6.1045 22.773s-1.2654 4.723 3.4525 5.9831c4.7227 1.2698 5.9877-3.4484 5.9877-3.4484l8.6351-32.219 81.092-46.813 32.209 8.6351s4.7176 1.2648 5.9826-3.453c1.2454-4.7227-3.4675-5.9831-3.4675-5.9831l-22.778-6.1045 19.399-11.199s4.2346-2.4471 1.7927-6.6766c-2.4468-4.2343-6.6766-1.7875-6.6766-1.7875l-19.394 11.194 6.1004-22.774s1.2648-4.7176-3.453-5.9826c-0.58973-0.15812-1.1257-0.22291-1.6118-0.21497zm-102.21 0.01447c-0.48611-0.0079-1.0221 0.05686-1.6118 0.21497-4.7227 1.2649-3.4525 5.9826-3.4525 5.9826l6.1045 22.778-19.399-11.203s-4.2295-2.442-6.6714 1.7875c-2.442 4.2295 1.7875 6.6714 1.7875 6.6714l19.394 11.199-22.778 6.0999s-4.7228 1.2652-3.453 5.9831c1.2649 4.7227 5.9826 3.4577 5.9826 3.4577l32.215-8.63 23.435 13.53 4.8963-2.8277v-5.6291l-23.447-13.537-8.63-32.209s-0.96854-3.6124-4.3713-3.668zm70.647 69.16-4.8953 2.8262v5.6312l23.453 13.541 8.6294 32.214s1.2652 4.718 5.9831 3.453c4.7178-1.2698 3.453-5.9826 3.453-5.9826l-6.105-22.779 19.399 11.199s4.2347 2.4417 6.6766-1.7828c2.442-4.2344-1.7927-6.6766-1.7927-6.6766l-19.394-11.199 22.774-6.0999c0-5e-3 4.718-1.2699 3.453-5.9877-1.2649-4.7179-5.9826-3.4525-5.9826-3.4525l-32.209 8.6294zm-19.545 11.283-4.886 2.8205v27.074l-23.579 23.579s-3.4529 3.4526 0 6.9055c3.4529 3.4529 6.906 0 6.906 0l16.673-16.673v22.398s3e-5 4.8839 4.8839 4.8839 4.8839-4.8839 4.8839-4.8839v-22.398l16.674 16.673s3.4531 3.4529 6.906 0c3.4529-3.4529 0-6.9055 0-6.9055l-23.58-23.579v-27.076z" fill="#fff"/>
</svg>
